<svg version="1.1" xmlns="http://www.w3.org/2000/svg" width="512" height="512">
	<path d="M0 0 C1.62733836 -0.00551503 1.62733836 -0.00551503 3.28755224 -0.01114148 C6.90544133 -0.0221127 10.52330165 -0.02601084 14.14120483 -0.02983093 C16.74197988 -0.03610015 19.34275403 -0.04274736 21.94352722 -0.04974365 C29.72926263 -0.06942007 37.51499916 -0.0795579 45.30075318 -0.08847144 C48.97181822 -0.09286432 52.64288184 -0.0982281 56.31394577 -0.10346031 C68.52129886 -0.12045524 80.72865109 -0.13495221 92.93601418 -0.14220905 C96.09702175 -0.14411873 99.25802932 -0.14603911 102.41903687 -0.147995 C103.20462409 -0.14847874 103.99021132 -0.14896248 104.79960422 -0.14946087 C117.5431048 -0.15777237 130.28651186 -0.18313586 143.02997155 -0.21557567 C156.12600587 -0.24864065 169.22199258 -0.26665685 182.31806886 -0.26985329 C189.66625372 -0.27201769 197.01430172 -0.28075735 204.36244583 -0.30631447 C211.26866718 -0.33028064 218.17463824 -0.3338509 225.08089256 -0.32355309 C227.61613344 -0.32305638 230.15138625 -0.32941619 232.68659019 -0.34310913 C236.1456059 -0.36074822 239.60372848 -0.3537605 243.06274414 -0.34057617 C244.06731647 -0.35154542 245.0718888 -0.36251466 246.10690272 -0.37381631 C253.02940351 -0.31004597 257.34402879 0.96158608 262.61141968 5.67451477 C267.53560959 11.9559019 268.19917925 16.69616506 268.17181396 24.42630005 C268.17634508 25.36414469 268.18087619 26.30198933 268.18554461 27.26825351 C268.19821055 30.41259438 268.19656681 33.55676253 268.19491577 36.7011261 C268.20089965 38.95486677 268.20770488 41.20860539 268.215271 43.46234131 C268.23295265 49.58636496 268.2376273 55.71033273 268.23890257 61.83437943 C268.24080115 66.94620247 268.24815823 72.05801248 268.25524676 77.1698305 C268.27060606 88.54143194 268.27658394 99.91299877 268.27523606 111.28460709 C268.27515614 111.96668727 268.27507623 112.64876745 268.2749939 113.35151672 C268.27491214 114.03443213 268.27483037 114.71734754 268.27474613 115.42095735 C268.27393341 126.48598677 268.29306828 137.55088 268.32127063 148.61587004 C268.35001642 159.9840058 268.36344392 171.35205452 268.36208308 182.72023505 C268.36157308 189.0999169 268.36727742 195.47944465 268.38843918 201.85909462 C268.40780074 207.85997484 268.40796001 213.86055363 268.39340591 219.86144447 C268.39131414 222.0624587 268.39604059 224.26349169 268.40812683 226.46447372 C268.4235727 229.47236699 268.41427495 232.47922005 268.39886475 235.48709106 C268.40915187 236.35529584 268.419439 237.22350062 268.43003786 238.11801463 C268.36495908 243.87776226 267.22061234 248.36659778 263.90438843 253.14717102 C262.00116356 254.97602379 259.99316358 256.52256813 257.90438843 258.14717102 C256.94841414 261.01509388 256.61063883 263.35869514 256.32626343 266.35420227 C254.85330143 280.93619049 252.6557602 294.97621083 248.90438843 309.14717102 C248.68411987 309.98941223 248.46385132 310.83165344 248.23690796 311.69941711 C237.85102595 350.65590266 216.75189491 386.16893481 188.90438843 415.14717102 C188.33703979 415.7417511 187.76969116 416.33633118 187.18515015 416.94892883 C178.65240527 425.84647781 169.83362612 433.84461196 159.90438843 441.14717102 C159.04828979 441.78646545 159.04828979 441.78646545 158.17489624 442.43867493 C149.43200316 448.95516291 140.36487602 454.73296123 130.90438843 460.14717102 C129.78161499 460.80330383 128.65884155 461.45943665 127.50204468 462.13545227 C97.58565892 478.9276643 62.22450546 489.06280713 27.90438843 490.14717102 C27.91486206 490.70702698 27.92533569 491.26688293 27.93612671 491.84370422 C27.97772169 494.38231409 28.00372528 496.92085222 28.02938843 499.45967102 C28.04614624 500.34074524 28.06290405 501.22181946 28.08016968 502.1295929 C28.08661499 502.97715149 28.0930603 503.82471008 28.09970093 504.69795227 C28.11017456 505.47823792 28.12064819 506.25852356 28.13143921 507.06245422 C27.90438843 509.14717102 27.90438843 509.14717102 25.90438843 512.14717102 C22.80719838 512.98467649 21.82631284 513.2135055 18.90438843 512.14717102 C16.50221298 509.88995443 14.49545449 507.42532525 12.39950562 504.88179016 C4.9603669 495.98321181 -1.38016502 490.17233918 -13.37808228 488.54512024 C-18.67785678 488.0970315 -23.97536376 487.74909784 -29.28652954 487.45918274 C-35.14363723 486.97941196 -40.72189504 485.71487661 -46.40811157 484.27217102 C-47.94241821 483.88424377 -47.94241821 483.88424377 -49.50772095 483.48847961 C-73.58048119 477.20368569 -99.77164323 468.20865581 -119.81781006 453.09475708 C-123.512759 450.89931266 -125.47115554 450.65285594 -129.72427368 450.66474915 C-131.02259628 450.65794128 -132.32091888 450.65113342 -133.65858459 450.64411926 C-134.34511045 450.64979416 -135.03163631 450.65546906 -135.73896599 450.66131592 C-137.90512451 450.67867887 -140.06996023 450.67101734 -142.23612976 450.65705872 C-147.61402562 450.62750965 -152.99166318 450.64057662 -158.36959839 450.65223694 C-162.92031663 450.66046479 -167.47045362 450.6524066 -172.02108955 450.62310791 C-174.14566652 450.61605314 -176.26919767 450.63263907 -178.39369202 450.65022278 C-186.59331916 450.60733149 -191.5815546 450.1860641 -197.80264282 444.61982727 C-202.04629012 439.2065528 -203.35757746 435.31862335 -203.22402954 428.45869446 C-203.20489436 427.10475274 -203.18584531 425.75080981 -203.16687012 424.39686584 C-203.15321285 423.6830349 -203.13955559 422.96920395 -203.12548447 422.23374176 C-203.06038087 418.3861385 -203.05635446 414.5382047 -203.04092407 410.69013977 C-203.01760381 405.82341275 -202.97810294 400.95868706 -202.87295532 396.0929718 C-202.44462613 375.24162487 -203.72603433 360.03939065 -214.67524719 341.67506409 C-230.14107815 314.14975621 -234.31831528 277.06272873 -234.34561157 246.08467102 C-234.34628632 245.38908081 -234.34696106 244.6934906 -234.34765625 243.9768219 C-234.31500926 222.56466527 -231.57656276 201.85168813 -226.09561157 181.14717102 C-225.87534302 180.30492981 -225.65507446 179.4626886 -225.4281311 178.59492493 C-218.06232126 150.96645154 -205.27010419 124.02386672 -188.09561157 101.14717102 C-187.64331177 100.54082825 -187.19101196 99.93448547 -186.7250061 99.30976868 C-180.33704131 90.80835583 -173.46413737 82.81489097 -166.09561157 75.14717102 C-165.52826294 74.55259094 -164.96091431 73.95801086 -164.37637329 73.34541321 C-155.84362841 64.44786423 -147.02484926 56.44973008 -137.09561157 49.14717102 C-136.52487915 48.72097473 -135.95414673 48.29477844 -135.36611938 47.85566711 C-126.62322631 41.33917913 -117.55609917 35.56138081 -108.09561157 30.14717102 C-106.97283813 29.49103821 -105.8500647 28.8349054 -104.69326782 28.15888977 C-78.72914473 13.5851019 -49.49695874 5.11876628 -20.09561157 1.14717102 C-19.18189629 1.02358309 -19.18189629 1.02358309 -18.24972212 0.89749843 C-12.1510922 0.14153792 -6.14052113 -0.00113196 0 0 Z " fill="#FE5757" transform="translate(239.09561157226563,-0.1471710205078125)"/>
	<path d="M0 0 C0.81179508 -0.00644889 1.62359015 -0.01289778 2.45998508 -0.0195421 C3.34625888 -0.01644489 4.23253268 -0.01334769 5.14566326 -0.01015663 C6.09152615 -0.01468774 7.03738903 -0.01921886 8.01191443 -0.02388728 C11.18933375 -0.03657298 14.36658258 -0.03490821 17.54402447 -0.03325844 C19.81894432 -0.0392411 22.09386214 -0.04604604 24.36877728 -0.05361366 C30.55477437 -0.07130804 36.74071616 -0.07597051 42.92673612 -0.07724524 C48.08830975 -0.07914268 53.24987046 -0.08649849 58.41143912 -0.09358943 C69.89261551 -0.10895309 81.37375584 -0.11492617 92.85493986 -0.11357872 C93.54382215 -0.11349881 94.23270445 -0.1134189 94.94246197 -0.11333656 C95.97704864 -0.11321392 95.97704864 -0.11321392 97.03253605 -0.1130888 C108.20823498 -0.11227606 119.38379908 -0.1314105 130.55945901 -0.1596133 C142.03717243 -0.18834953 153.51479281 -0.20178699 164.99254817 -0.20042574 C171.43536961 -0.19991548 177.87803852 -0.20563407 184.32082844 -0.22678185 C190.38078725 -0.24612926 196.44044748 -0.24631241 202.50041676 -0.23174858 C204.72442593 -0.22965502 206.94845362 -0.23439381 209.17243099 -0.2464695 C212.20918921 -0.26189015 215.24491386 -0.25263426 218.28164959 -0.23720741 C219.16123123 -0.24749454 220.04081286 -0.25778167 220.94704849 -0.26838052 C227.45515379 -0.19534788 231.66690301 1.36080096 236.61116314 5.78461266 C241.53535305 12.06599979 242.19892271 16.80626295 242.17155743 24.53639793 C242.17608854 25.47424257 242.18061965 26.41208722 242.18528807 27.37835139 C242.19795401 30.52269226 242.19631027 33.66686041 242.19465923 36.81122398 C242.20064312 39.06496466 242.20744834 41.31870328 242.21501446 43.57243919 C242.23269611 49.69646284 242.23737076 55.82043061 242.23864603 61.94447732 C242.24054461 67.05630036 242.24790169 72.16811036 242.25499022 77.27992839 C242.27034952 88.65152983 242.2763274 100.02309666 242.27497952 111.39470498 C242.2748996 112.07678515 242.27481969 112.75886533 242.27473736 113.46161461 C242.2746556 114.14453002 242.27457384 114.82744542 242.2744896 115.53105523 C242.27367687 126.59608465 242.29281174 137.66097789 242.32101409 148.72596792 C242.34975988 160.09410369 242.36318739 171.46215241 242.36182654 182.83033293 C242.36131654 189.21001479 242.36702088 195.58954253 242.38818264 201.9691925 C242.4075442 207.97007273 242.40770347 213.97065152 242.39314938 219.97154236 C242.3910576 222.17255658 242.39578405 224.37358957 242.40787029 226.57457161 C242.42331616 229.58246487 242.41401842 232.58931794 242.39860821 235.59718895 C242.40889533 236.46539373 242.41918246 237.33359851 242.42978132 238.22811252 C242.35774201 244.60389662 240.9104275 250.00334611 236.49224508 254.78545219 C233.0276441 257.84401418 229.5885999 260.25241368 224.85403156 260.26097679 C222.26175925 260.07487265 219.68613222 259.81163028 217.10261822 259.52875328 C215.05141017 259.3326626 212.99983182 259.14041811 210.94795513 258.95145226 C209.31230854 258.80007868 209.31230854 258.80007868 207.64361858 258.64564705 C148.28529906 252.10938298 148.28529906 252.10938298 95.42373371 273.88116264 C80.89623143 286.68262405 68.05699817 301.68715979 56.67329693 317.33432579 C56.17652793 318.01043655 55.67975893 318.68654732 55.16793633 319.38314629 C54.25064172 320.64403617 53.35000866 321.91728482 52.46974182 323.20429802 C51.2573576 324.87863731 51.2573576 324.87863731 48.90413189 327.25726891 C45.44168546 327.25154778 44.35302044 326.70615746 41.90413189 324.25726891 C41.66362286 321.58707237 41.66362286 321.58707237 41.67708111 318.15521812 C41.67723217 316.87404106 41.67738323 315.592864 41.67753887 314.27286339 C41.68775294 312.86922616 41.69818494 311.46559051 41.70881939 310.06195641 C41.71254897 308.62992106 41.7153962 307.19788316 41.71739483 305.76584435 C41.72503562 301.99448173 41.74468781 298.22327287 41.76680279 294.45197105 C41.7872517 290.60453941 41.79639449 286.75708296 41.80647564 282.90961266 C41.82793339 275.35876127 41.86207457 267.80803662 41.90413189 260.25726891 C41.34560528 260.26837196 40.78707867 260.27947502 40.21162701 260.29091454 C34.37133643 260.40197558 28.5313483 260.47712859 22.6902647 260.53192711 C20.51370835 260.55699146 18.3372355 260.59105222 16.16096783 260.63446617 C13.02306235 260.69547303 9.88627452 260.72356012 6.74788189 260.74555016 C5.30052654 260.7842598 5.30052654 260.7842598 3.82393169 260.82375145 C-3.52560095 260.82676724 -8.41467077 258.91580285 -13.65482807 253.70790672 C-18.30356444 248.39451384 -18.24443261 243.84665155 -18.24303913 237.09129906 C-18.24671582 236.14150148 -18.25039251 235.1917039 -18.25418061 234.21312457 C-18.26523247 231.01648954 -18.26906382 227.819887 -18.27287006 224.6232357 C-18.27913349 222.33698994 -18.28578018 220.05074519 -18.29278278 217.76450157 C-18.31020169 211.54340392 -18.32074662 205.32231396 -18.32898831 199.10119796 C-18.33413576 195.21675085 -18.34021156 191.33230614 -18.34649944 187.44786072 C-18.36336877 176.69306453 -18.37800441 165.93827205 -18.38524818 155.183465 C-18.38715807 152.3930435 -18.3890784 149.60262201 -18.39103413 146.81220055 C-18.39151787 146.11865767 -18.39200161 145.4251148 -18.39250001 144.71055547 C-18.40080241 133.4726924 -18.42614372 122.2349357 -18.4586148 110.99711909 C-18.49168027 99.45956155 -18.50936359 87.92207408 -18.51289243 76.38446742 C-18.51524651 69.90644178 -18.52425388 63.42858432 -18.5493536 56.95060349 C-18.57257939 50.85784377 -18.57688956 44.76536364 -18.56659222 38.67257118 C-18.56609544 36.43523734 -18.57245748 34.19789 -18.58614826 31.96059799 C-18.60378376 28.90812435 -18.59680174 25.85666321 -18.5836153 22.80418968 C-18.60006917 21.47358836 -18.60006917 21.47358836 -18.61685544 20.11610621 C-18.55157124 13.86433016 -16.98222523 10.23021674 -12.53336811 5.64789391 C-8.43189858 2.393467 -5.32095002 0.01071763 0 0 Z " fill="#FEC143" transform="translate(265.09586811065674,-0.25726890563964844)"/>
	<path d="M0 0 C1.54882668 0.00502497 3.09765493 0.00958612 4.64648438 0.01367188 C8.41019576 0.02459862 12.17383015 0.04180825 15.9375 0.0625 C13.99925484 1.516372 12.06093011 2.9701265 10.12109375 4.421875 C9.54488281 4.88078125 8.96867188 5.3396875 8.375 5.8125 C7.50681641 6.48539062 7.50681641 6.48539062 6.62109375 7.171875 C0.92788967 13.56517146 1.49566346 21.06119418 1.50512695 29.15795898 C1.4949353 30.46595963 1.48474365 31.77396027 1.47424316 33.12159729 C1.44676078 36.69133926 1.43740067 40.26092193 1.43138909 43.83075595 C1.42198247 47.56774072 1.3957773 51.30460758 1.37138367 55.04151917 C1.32777772 62.11028963 1.29919458 69.17903714 1.27606028 76.24790102 C1.24897687 84.29876422 1.20506735 92.34950844 1.15977156 100.40028656 C1.06700991 116.95429732 0.99529047 133.50832942 0.9375 150.0625 C-0.55890518 150.06331715 -0.55890518 150.06331715 -2.08554077 150.06415081 C-26.36463183 150.07854919 -50.64354366 150.12157816 -74.92253113 150.19459057 C-86.66370723 150.2292368 -98.40476597 150.25459563 -110.14599609 150.25805664 C-120.38021592 150.26109703 -130.6142267 150.28159772 -140.84836578 150.32302457 C-146.26681366 150.34434927 -151.68496438 150.35695777 -157.10345459 150.34865379 C-162.20565949 150.34111049 -167.30726245 150.35694828 -172.40935707 150.39056015 C-174.27977029 150.39878997 -176.15024341 150.39854743 -178.02065086 150.38909721 C-190.98708257 150.05114566 -190.98708257 150.05114566 -202.0625 156.0625 C-206.65495459 161.12597558 -207.21236487 164.30887779 -207.22071838 170.97171021 C-207.22565636 171.79829663 -207.23059434 172.62488306 -207.23568195 173.47651756 C-207.25110883 176.26184945 -207.25943158 179.0471582 -207.26782227 181.83251953 C-207.27739671 183.8229391 -207.28740653 185.81335662 -207.29782104 187.80377197 C-207.32492313 193.22082306 -207.34590392 198.63788292 -207.36582303 204.05496454 C-207.38764994 209.71112837 -207.41505471 215.36726504 -207.44187927 221.02340698 C-207.49185081 231.74019724 -207.53677306 242.45700254 -207.57990164 253.17382228 C-207.62923594 265.37196165 -207.68416816 277.57007377 -207.73958123 289.76818681 C-207.85346975 314.8662658 -207.96029378 339.96437091 -208.0625 365.0625 C-210.55571062 362.66909483 -212.00227047 360.53035919 -213.515625 357.40625 C-213.96655518 356.47619141 -214.41748535 355.54613281 -214.88208008 354.58789062 C-215.35411865 353.58951172 -215.82615723 352.59113281 -216.3125 351.5625 C-216.80194092 350.52802734 -217.29138184 349.49355469 -217.7956543 348.42773438 C-232.77809256 316.295354 -240.28126565 281.44728191 -240.3125 246 C-240.31317474 245.30440979 -240.31384949 244.60881958 -240.31454468 243.89215088 C-240.28189768 222.47999425 -237.54345119 201.76701711 -232.0625 181.0625 C-231.84223145 180.22025879 -231.62196289 179.37801758 -231.39501953 178.51025391 C-224.02920969 150.88178052 -211.23699262 123.9391957 -194.0625 101.0625 C-193.6102002 100.45615723 -193.15790039 99.84981445 -192.69189453 99.22509766 C-186.30392974 90.72368481 -179.4310258 82.73021995 -172.0625 75.0625 C-171.49515137 74.46791992 -170.92780273 73.87333984 -170.34326172 73.26074219 C-161.81051684 64.36319321 -152.99173769 56.36505906 -143.0625 49.0625 C-142.49176758 48.63630371 -141.92103516 48.21010742 -141.33300781 47.77099609 C-132.59011473 41.25450811 -123.52298759 35.47670979 -114.0625 30.0625 C-112.93972656 29.40636719 -111.81695312 28.75023438 -110.66015625 28.07421875 C-84.60946707 13.45184091 -55.5041831 5.2371774 -26.0625 1.0625 C-25.38517822 0.95719971 -24.70785645 0.85189941 -24.01000977 0.7434082 C-16.06202676 -0.34330823 -8.00384518 -0.04533545 0 0 Z " fill="#475960" transform="translate(245.0625,-0.0625)"/>
	<path d="M0 0 C-3.98064954 59.29385435 -26.67701688 113.99912427 -68 157 C-68.56734863 157.59458008 -69.13469727 158.18916016 -69.71923828 158.80175781 C-78.25198316 167.69930679 -87.07076231 175.69744094 -97 183 C-97.57073242 183.42619629 -98.14146484 183.85239258 -98.72949219 184.29150391 C-107.47238527 190.80799189 -116.53951241 196.58579021 -126 202 C-127.12277344 202.65613281 -128.24554688 203.31226563 -129.40234375 203.98828125 C-159.93596888 221.12695272 -194.28378404 229.6855856 -229 232 C-229 218.8 -229 205.6 -229 192 C-223.29203125 191.96132813 -223.29203125 191.96132813 -217.46875 191.921875 C-213.7684806 191.88342277 -210.06834905 191.8382725 -206.36816406 191.79248047 C-203.80377829 191.76431819 -201.23930647 191.74308019 -198.67480469 191.72900391 C-194.98067323 191.70750974 -191.28757113 191.66082255 -187.59375 191.609375 C-186.4538562 191.60814636 -185.3139624 191.60691772 -184.13952637 191.60565186 C-176.89478103 191.47344059 -170.85901454 190.68526025 -165.44787598 185.51776123 C-161.79100064 181.34646159 -160.83747089 178.33696462 -161.13786316 172.92408752 C-161.19166138 171.87288223 -161.24545959 170.82167694 -161.30088806 169.73861694 C-161.39594383 168.00703842 -161.39594383 168.00703842 -161.49291992 166.24047852 C-162.12259735 153.62945341 -162.52697566 141.02465689 -162.80645275 128.40135288 C-162.98183253 120.77433073 -163.23726388 113.16690557 -163.69165039 105.55102539 C-165.35699599 76.92097298 -166.71560808 48.67241333 -147.0131073 25.73187256 C-132.58506978 9.70448259 -116.39547481 -0.32980951 -94.64170837 -2.19477844 C-83.44556657 -2.77848129 -72.34711205 -2.21367926 -61.1763916 -1.42651367 C-54.73615526 -1.02158182 -48.28982049 -0.87475236 -41.83984375 -0.70507812 C-31.50352967 -0.40956604 -21.18677138 0.02563584 -10.86773682 0.69911194 C-9.98618927 0.75291016 -9.10464172 0.80670837 -8.19638062 0.86213684 C-7.42944571 0.91283231 -6.6625108 0.96352777 -5.87233543 1.01575947 C-3.61213843 0.99673536 -2.27778583 0 0 0 Z " fill="#5A6B75" transform="translate(496,258)"/>
	<path d="M0 0 C-3.98064954 59.29385435 -26.67701688 113.99912427 -68 157 C-68.56734863 157.59458008 -69.13469727 158.18916016 -69.71923828 158.80175781 C-78.25198316 167.69930679 -87.07076231 175.69744094 -97 183 C-97.57073242 183.42619629 -98.14146484 183.85239258 -98.72949219 184.29150391 C-107.47238527 190.80799189 -116.53951241 196.58579021 -126 202 C-127.12277344 202.65613281 -128.24554688 203.31226563 -129.40234375 203.98828125 C-159.93596888 221.12695272 -194.28378404 229.6855856 -229 232 C-229 218.8 -229 205.6 -229 192 C-223.29203125 191.96132813 -223.29203125 191.96132813 -217.46875 191.921875 C-213.7684806 191.88342277 -210.06834905 191.8382725 -206.36816406 191.79248047 C-203.80377829 191.76431819 -201.23930647 191.74308019 -198.67480469 191.72900391 C-194.98067323 191.70750974 -191.28757113 191.66082255 -187.59375 191.609375 C-186.4538562 191.60814636 -185.3139624 191.60691772 -184.13952637 191.60565186 C-175.86614349 191.45466871 -170.46207103 190.15433138 -164.1875 184.4375 C-161.99957651 181.63678095 -161.60437638 179.12829006 -161.00390625 175.6640625 C-159.78562292 171.03519745 -158.55277222 169.0956403 -154.421875 166.65234375 C-152.54831811 165.71256814 -150.65633142 164.80887486 -148.75 163.9375 C-146.74725848 162.93645574 -144.74726008 161.9299052 -142.75 160.91796875 C-141.27853516 160.18586182 -141.27853516 160.18586182 -139.77734375 159.43896484 C-125.7659235 152.17953174 -113.45050767 141.73485094 -102 131 C-101.25943359 130.31043213 -101.25943359 130.31043213 -100.50390625 129.60693359 C-65.59860006 96.84512657 -44.48390038 49.53575598 -41 2 C-39.33445068 1.96241577 -39.33445068 1.96241577 -37.63525391 1.92407227 C-33.52396681 1.83005085 -29.41285077 1.72981743 -25.30175781 1.62768555 C-23.52087397 1.5843167 -21.73994802 1.54264306 -19.95898438 1.50268555 C-17.40221452 1.4450301 -14.84565702 1.3813223 -12.2890625 1.31640625 C-11.49005524 1.29969376 -10.69104797 1.28298126 -9.86782837 1.26576233 C-6.39505757 1.17223868 -3.27199222 0 0 0 Z " fill="#465960" transform="translate(496,258)"/>
	<path d="M0 0 C0 34.65 0 69.3 0 105 C-54.78 105 -109.56 105 -166 105 C-162.69571982 98.39143965 -159.62938358 92.58369239 -155.375 86.6875 C-154.84994873 85.9553125 -154.32489746 85.223125 -153.78393555 84.46875 C-136.96785659 61.28880535 -116.14177184 40.9761874 -91 27 C-90.23703613 26.57477051 -89.47407227 26.14954102 -88.68798828 25.71142578 C-61.52606871 10.72173982 -31.41208233 0 0 0 Z " fill="#586B75" transform="translate(246,45)"/>
	<path d="M0 0 C0.79339783 0.0028299 1.58679565 0.00565979 2.40423584 0.00857544 C4.93110417 0.01974471 7.45761432 0.04484306 9.984375 0.0703125 C11.7005157 0.08034652 13.41666198 0.08947163 15.1328125 0.09765625 C19.33347074 0.11967336 23.5338622 0.15418063 27.734375 0.1953125 C26.80057007 0.65587036 26.80057007 0.65587036 25.84790039 1.12573242 C20.60055923 3.78122528 16.25688057 6.72988376 13.734375 12.1953125 C12.84306543 15.14625147 12.60693713 17.7893391 12.60015392 20.86623001 C12.59569608 21.80629402 12.59123824 22.74635804 12.58664531 23.71490884 C12.58682967 24.74446561 12.58701403 25.77402237 12.58720398 26.83477783 C12.58352729 27.93102659 12.5798506 29.02727535 12.5760625 30.15674376 C12.56501824 33.84310732 12.56118057 37.52944269 12.55737305 41.21582031 C12.55110903 43.85364449 12.54447512 46.49146565 12.53746033 49.12928772 C12.51771163 57.05356597 12.5076324 64.97784547 12.49873254 72.90214217 C12.49434762 76.63485333 12.48898139 80.36756308 12.48374367 84.10027313 C12.4667341 96.50987071 12.45223966 108.91946741 12.44499493 121.32907486 C12.44308508 124.54832205 12.44116473 127.76756924 12.43920898 130.98681641 C12.43848337 132.18698873 12.43848337 132.18698873 12.4377431 133.41140696 C12.42944174 146.37441113 12.40410184 159.33732304 12.37162831 172.30028692 C12.33855318 185.61200012 12.32054582 198.92366644 12.31735069 212.23542094 C12.31518616 219.70834879 12.3064459 227.18114206 12.28088951 234.65402985 C12.2591764 241.01774075 12.25113509 247.38128436 12.26085629 253.74502811 C12.26539914 256.99067386 12.26133115 260.23590266 12.24409485 263.48151588 C12.226435 267.0039398 12.23345408 270.52548844 12.24662781 274.0479126 C12.23565856 275.06854648 12.22468932 276.08918036 12.21338767 277.14074254 C12.27657884 284.14035115 13.39253505 289.80950098 18.515625 295 C19.0828125 295.35320312 19.65 295.70640625 20.234375 296.0703125 C20.8015625 296.43898438 21.36875 296.80765625 21.953125 297.1875 C23.84899874 298.2601654 25.78334072 299.22736142 27.734375 300.1953125 C22.59323684 300.2946434 17.45266475 300.36699764 12.31079102 300.41503906 C10.56394716 300.43507872 8.81716975 300.46231837 7.07055664 300.49707031 C4.55077668 300.54592832 2.03188815 300.56835736 -0.48828125 300.5859375 C-1.26148209 300.60658264 -2.03468292 300.62722778 -2.83131409 300.64849854 C-9.09569279 300.6510553 -13.22686996 298.91419859 -17.97265625 294.66796875 C-21.75559793 289.84237883 -23.52136258 286.00744695 -23.49664307 279.86816406 C-23.49728508 278.80163101 -23.49792709 277.73509796 -23.49858856 276.63624573 C-23.4890641 275.46464401 -23.47953964 274.2930423 -23.46972656 273.0859375 C-23.46761421 271.82760605 -23.46550186 270.5692746 -23.4633255 269.27281189 C-23.45722051 265.74788204 -23.43859322 262.22310978 -23.41808224 258.69823837 C-23.39787854 254.85133753 -23.38911977 251.00440943 -23.37921143 247.1574707 C-23.36277905 241.19249966 -23.34222283 235.22756279 -23.31760192 229.26261997 C-23.26471823 216.37431123 -23.24418874 203.48605682 -23.22851562 190.59765625 C-23.20307232 170.64881356 -23.15195068 150.70015357 -23.08168793 130.75141907 C-23.04146818 119.20309021 -23.00920156 107.65483757 -22.99462891 96.10644531 C-22.98164003 85.8234121 -22.9548342 75.54052677 -22.91101193 65.25757694 C-22.88850798 59.87157495 -22.87270851 54.48575416 -22.87374115 49.09970093 C-22.87448355 44.09513156 -22.85670413 39.09097581 -22.82445717 34.08651352 C-22.81593973 32.2571285 -22.81422073 30.42769721 -22.81982231 28.59830093 C-22.82644883 26.10321566 -22.80858197 23.60945384 -22.78460693 21.11450195 C-22.79236735 20.39375583 -22.80012777 19.6730097 -22.80812335 18.93042278 C-22.70994609 13.16356014 -20.65938217 9.66088239 -16.703125 5.5859375 C-10.9122169 0.99097782 -7.38495896 -0.09941403 0 0 Z " fill="#FE4343" transform="translate(59.265625,149.8046875)"/>
	<path d="M0 0 C1.20079193 0.00022659 1.20079193 0.00022659 2.42584229 0.00045776 C3.70730133 0.01594162 3.70730133 0.01594162 5.01464844 0.03173828 C5.89683044 0.03456818 6.77901245 0.03739807 7.68792725 0.04031372 C10.50009842 0.05149117 13.31194884 0.07659127 16.12402344 0.10205078 C18.032873 0.11208373 19.94172756 0.12120903 21.85058594 0.12939453 C26.52518833 0.15142254 31.19955153 0.18593567 35.87402344 0.22705078 C35.27589844 0.51966797 34.67777344 0.81228516 34.06152344 1.11376953 C28.32771921 4.03186633 23.79986405 7.37536956 20.87402344 13.22705078 C20.7713229 16.24973381 20.73066019 19.24963042 20.73358154 22.27276611 C20.73061042 23.22170927 20.7276393 24.17065242 20.72457814 25.14835143 C20.71586307 28.34809593 20.71438052 31.54780314 20.71289062 34.74755859 C20.70826441 37.03365662 20.70324002 39.31975388 20.69784546 41.60585022 C20.68469988 47.83114244 20.67827222 54.05642386 20.6738348 60.28172779 C20.67090735 64.16834726 20.66680315 68.05496375 20.66233063 71.94158173 C20.65021818 82.70062808 20.63983752 93.45967055 20.63645554 104.2187233 C20.63623597 104.9075971 20.6360164 105.59647091 20.63579018 106.30621968 C20.63557191 106.99675361 20.63535363 107.68728753 20.63512874 108.39874673 C20.63468527 109.79805772 20.63423871 111.1973687 20.63378906 112.59667969 C20.63345692 113.63784225 20.63345692 113.63784225 20.63311806 114.7000384 C20.62917097 125.94441059 20.61172058 137.18871794 20.58842954 148.43306509 C20.56471474 159.97510941 20.55251158 171.51711197 20.55108762 183.05918193 C20.55003813 189.54054292 20.54409979 196.02181253 20.52626801 202.50315094 C20.5098212 208.59996773 20.50761539 214.6966241 20.51640701 220.79345512 C20.51717922 223.03239559 20.51281055 225.27134456 20.50294876 227.51026344 C20.49028246 230.56483493 20.49607738 233.61883371 20.50653076 236.67340088 C20.49847436 237.56115054 20.49041795 238.44890021 20.48211741 239.36355138 C20.52250831 244.40391536 21.07341828 247.86423442 23.87402344 252.22705078 C27.6225921 255.89231792 30.80181029 257.898614 35.87402344 259.22705078 C35.87402344 259.55705078 35.87402344 259.88705078 35.87402344 260.22705078 C30.32397495 260.35127707 24.77474762 260.44168395 19.22363281 260.50170898 C17.33807261 260.52674855 15.45260846 260.56079078 13.56738281 260.60424805 C10.8464378 260.66536864 8.12678317 260.69336571 5.40527344 260.71533203 C4.57161255 260.74113846 3.73795166 260.76694489 2.87902832 260.79353333 C-4.00840036 260.79678375 -8.79459173 258.52707307 -13.69006348 253.6776886 C-18.32808864 248.35674917 -18.27454141 243.81814074 -18.27314758 237.06108093 C-18.27682427 236.11128335 -18.28050096 235.16148577 -18.28428906 234.18290645 C-18.29534092 230.98627142 -18.29917227 227.78966887 -18.30297852 224.59301758 C-18.30924195 222.30677181 -18.31588864 220.02052707 -18.32289124 217.73428345 C-18.34031014 211.5131858 -18.35085507 205.29209583 -18.35909677 199.07097983 C-18.36424421 195.18653272 -18.37032001 191.30208801 -18.37660789 187.41764259 C-18.39347722 176.6628464 -18.40811286 165.90805393 -18.41535664 155.15324688 C-18.41726652 152.36282538 -18.41918686 149.57240389 -18.42114258 146.78198242 C-18.42162632 146.08843955 -18.42211006 145.39489667 -18.42260846 144.68033735 C-18.43091086 133.44247428 -18.45625217 122.20471758 -18.48872326 110.96690097 C-18.52178872 99.42934343 -18.53947204 87.89185595 -18.54300088 76.3542493 C-18.54535496 69.87622366 -18.55436233 63.3983662 -18.57946205 56.92038536 C-18.60268785 50.82762564 -18.60699802 44.73514551 -18.59670067 38.64235306 C-18.59620389 36.40501922 -18.60256593 34.16767187 -18.61625671 31.93037987 C-18.63389221 28.87790623 -18.62691019 25.82644508 -18.61372375 22.77397156 C-18.63017762 21.44337024 -18.63017762 21.44337024 -18.64696389 20.08588809 C-18.58167969 13.83411203 -17.01233368 10.19999862 -12.56347656 5.61767578 C-8.44389612 2.34887826 -5.34738317 -0.0338442 0 0 Z " fill="#FEB509" transform="translate(265.1259765625,-0.22705078125)"/>
	<path d="M0 0 C11.6281726 8.40917614 19.6484005 20.87230307 22 35 C23.0224018 46.04933035 22.77967404 56.82747006 18 67 C17.649375 67.78246094 17.29875 68.56492187 16.9375 69.37109375 C10.59648917 82.07513282 -0.4806989 91.21906166 -13.578125 96.2734375 C-16.36145485 97.10843645 -19.13287635 97.54245936 -22 98 C-21.9685791 99.86918091 -21.9685791 99.86918091 -21.93652344 101.77612305 C-21.86402649 106.40719067 -21.81816487 111.0382083 -21.78027344 115.66967773 C-21.76018009 117.67269328 -21.73290035 119.67565032 -21.69824219 121.6784668 C-21.64962389 124.56053108 -21.62700848 127.44181866 -21.609375 130.32421875 C-21.58872986 131.21711105 -21.56808472 132.11000336 -21.54681396 133.029953 C-21.54530715 137.2218356 -21.63224329 139.41097475 -23.89941406 143.04223633 C-27.13665445 146.05937146 -29.52059006 146.39166844 -33.9609375 146.359375 C-37.38006698 145.7567698 -38.93189052 143.63213933 -41 141 C-42.24449274 138.51101451 -42.15389675 136.78802313 -42.19287109 134.00292969 C-42.20893402 132.96134705 -42.22499695 131.9197644 -42.24154663 130.84661865 C-42.28597039 126.07597461 -42.32706834 121.3054705 -42.35009766 116.53466797 C-42.36665272 114.01862333 -42.3939364 111.50262563 -42.43212891 108.98681641 C-42.48690326 105.36075415 -42.50877458 101.73579531 -42.5234375 98.109375 C-42.54610687 96.98730652 -42.56877625 95.86523804 -42.59213257 94.70916748 C-42.5685657 85.99209245 -42.5685657 85.99209245 -39.59228516 82.30566406 C-35.8020771 78.9345278 -33.54853831 78.8203878 -28.5625 78.3125 C-19.14108777 76.99833378 -11.11804674 73.54984402 -5.2109375 65.8671875 C0.88331919 56.47023686 2.38073175 47.05335794 1 36 C-1.70491995 27.23799144 -6.69380572 20.22985739 -14.515625 15.46875 C-23.88244665 10.8621164 -34.52394361 10.01679788 -44.5078125 13.07421875 C-51.12190021 16.09945937 -55.90873539 20.00101088 -60 26 C-60.39703125 26.56976563 -60.7940625 27.13953125 -61.203125 27.7265625 C-64.21295988 32.82531263 -64.95640115 38.4704812 -65.61035156 44.27734375 C-66.16305436 48.14438973 -67.00437478 50.42593181 -69.9140625 52.94921875 C-73 55 -73 55 -76 55.625 C-80.23176372 54.74338256 -81.94538758 53.05461242 -85 50 C-88.39818487 39.80544538 -84.92037812 29.15095185 -80.4921875 19.82421875 C-73.1248965 6.34036289 -61.40893868 -3.84954468 -46.5703125 -8.34375 C-29.99570389 -11.39028638 -14.41719879 -8.69765344 0 0 Z " fill="#FFFCFC" transform="translate(204,213)"/>
	<path d="M0 0 C0.75144287 0.00418945 1.50288574 0.00837891 2.27709961 0.01269531 C8.17557122 0.13217734 13.28752402 0.99874406 18.75 3.3125 C19.41902344 3.56773438 20.08804688 3.82296875 20.77734375 4.0859375 C30.34545 8.21632792 37.79507394 16.31621237 42.75 25.3125 C43.1625 25.98925781 43.575 26.66601562 44 27.36328125 C48.75189675 36.6525794 48.4869756 50.28932396 45.8671875 60.24609375 C41.95673782 71.23937777 34.32979699 81.24888661 23.9375 86.8203125 C19.92020835 88.6900626 16.05940435 90.28139451 11.75 91.3125 C11.74589111 92.31627686 11.74178223 93.32005371 11.73754883 94.35424805 C11.71571688 98.09141844 11.66138706 101.82754201 11.59741211 105.56420898 C11.57426714 107.17901549 11.55984457 108.79397221 11.55444336 110.40893555 C11.54512726 112.73581148 11.50408632 115.06033676 11.45703125 117.38671875 C11.46293022 118.46357185 11.46293022 118.46357185 11.46894836 119.56217957 C11.35711486 123.43547166 10.85936399 125.17498404 8.4206543 128.24145508 C5.03392703 130.86780185 3.02849248 131.38756127 -1.25 131.3125 C-5.30841701 129.24500454 -7.56477644 127.52383491 -9.25 123.3125 C-9.51742554 121.2394104 -9.51742554 121.2394104 -9.54052734 119.00634766 C-9.55328705 118.1651236 -9.56604675 117.32389954 -9.57919312 116.45718384 C-9.58141876 115.5560788 -9.58364441 114.65497375 -9.5859375 113.7265625 C-9.5925943 112.7920224 -9.5992511 111.8574823 -9.60610962 110.8946228 C-9.61622548 108.91935186 -9.62092697 106.94404682 -9.62060547 104.96875 C-9.62497441 101.95515271 -9.66129345 98.94302536 -9.69921875 95.9296875 C-9.70508806 94.00781749 -9.70905669 92.08594055 -9.7109375 90.1640625 C-9.72530853 89.26700592 -9.73967957 88.36994934 -9.75448608 87.44570923 C-9.71430687 81.91156484 -8.99755502 78.66868304 -5.25 74.3125 C-2.00832544 72.15138362 -0.47767214 71.97759056 3.3125 71.5625 C10.50573716 70.43039246 16.72294275 68.00216195 21.4453125 62.24609375 C26.33717127 54.65672429 26.5264951 47.11578748 25.75 38.3125 C23.65341863 31.34675535 18.94370942 26.89030563 12.75 23.3125 C6.2352745 20.18973901 -1.28007239 20.06419618 -8.14453125 22.22265625 C-15.60817129 25.70270431 -20.25759004 30.53223411 -23.25 38.3125 C-23.43207119 39.97559808 -23.57505043 41.6432486 -23.6875 43.3125 C-24.03791925 47.9660676 -25.10866541 50.72240333 -28.25 54.3125 C-31.44879429 56.65828248 -34.35652889 56.78925156 -38.25 56.3125 C-40.94990662 54.51256226 -42.7918865 53.228727 -44.25 50.3125 C-45.3818156 37.66850282 -43.17128022 27.24843312 -34.96875 17.18359375 C-25.49287817 6.8678151 -14.32952117 -0.10886018 0 0 Z " fill="#FFFEFC" transform="translate(375.25,46.6875)"/>
	<path d="M0 0 C12.83824482 -1.18193191 25.67755182 -1.98424797 38.5625 -2.4375 C39.50304985 -2.47073742 40.4435997 -2.50397484 41.41265106 -2.53821945 C62.92207137 -3.20940564 82.26898324 -3.74744163 99.01594543 11.23051453 C107.34596942 19.47095469 115.10523654 28.8400309 121 39 C121 39.33 121 39.66 121 40 C79.24137671 41.14166583 34.32035277 23.96224319 0 1 C0 0.67 0 0.34 0 0 Z " fill="#465A61" transform="translate(116,450)"/>
	<path d="M0 0 C0.33 0 0.66 0 1 0 C1.09765625 1.953125 1.1953125 3.90625 1.29296875 5.859375 C2.36387927 9.10168973 4.17395863 10.15444151 7 12 C10.34994801 12.48079519 10.34994801 12.48079519 13.8125 12.25 C14.97394531 12.21390625 16.13539063 12.1778125 17.33203125 12.140625 C18.65267578 12.07101562 18.65267578 12.07101562 20 12 C20.09900816 17.88984287 20.17153481 23.77919945 20.21972656 29.66967773 C20.23981991 31.67269328 20.26709965 33.67565032 20.30175781 35.6784668 C20.35037611 38.56053108 20.37299152 41.44181866 20.390625 44.32421875 C20.41127014 45.21711105 20.43191528 46.11000336 20.45318604 47.029953 C20.45469285 51.2218356 20.36775671 53.41097475 18.10058594 57.04223633 C14.86334555 60.05937146 12.47940994 60.39166844 8.0390625 60.359375 C4.61993302 59.7567698 3.06810948 57.63213933 1 55 C-0.26372044 52.47255912 -0.12022795 50.73619692 -0.11352539 47.90771484 C-0.11344986 46.84676605 -0.11337433 45.78581726 -0.11329651 44.69271851 C-0.10813522 43.54373077 -0.10297394 42.39474304 -0.09765625 41.2109375 C-0.0962413 40.03737701 -0.09482635 38.86381653 -0.09336853 37.6546936 C-0.08775689 33.89477015 -0.07520238 30.13490555 -0.0625 26.375 C-0.0574865 23.83073002 -0.05292333 21.28645912 -0.04882812 18.7421875 C-0.03778368 12.49477147 -0.02103418 6.24738994 0 0 Z " fill="#FFE4BD" transform="translate(162,299)"/>
	<path d="M0 0 C0.33 0 0.66 0 1 0 C1.390625 1.98567708 1.78125 3.97135417 2.171875 5.95703125 C3.29081719 8.71744051 4.42745258 9.49775739 7 11 C10.27716002 11.36208096 10.27716002 11.36208096 13.75 11.1875 C14.92046875 11.16042969 16.0909375 11.13335937 17.296875 11.10546875 C18.63492187 11.05326172 18.63492187 11.05326172 20 11 C20.12391876 15.75047352 20.21448561 20.49999961 20.2746582 25.25170898 C20.29974959 26.86678461 20.33383126 28.48174726 20.37719727 30.09643555 C20.43809286 32.42264706 20.46626124 34.74735359 20.48828125 37.07421875 C20.51408768 37.79212082 20.5398941 38.51002289 20.56648254 39.24967957 C20.56864794 43.15054109 20.13225011 44.83272487 17.68432617 47.92895508 C14.28865067 50.54882914 12.28211946 51.0751249 8 51 C3.9464203 48.93496883 1.67365871 47.21381258 0 43 C-0.24050903 40.88653564 -0.24050903 40.88653564 -0.22705078 38.59863281 C-0.22689972 37.7380426 -0.22674866 36.87745239 -0.22659302 35.99078369 C-0.21627045 35.07085632 -0.20594788 34.15092896 -0.1953125 33.203125 C-0.1924826 32.25435486 -0.18965271 31.30558472 -0.18673706 30.32806396 C-0.17555448 27.30191361 -0.1504533 24.2760607 -0.125 21.25 C-0.11496772 19.19661886 -0.1058423 17.14323308 -0.09765625 15.08984375 C-0.07562141 10.05978146 -0.04110462 5.02994114 0 0 Z " fill="#FFE5BB" transform="translate(366,127)"/>
	<path d="M0 0 C2.92837797 2.45027545 4.56680768 4.19920878 5.47265625 7.96484375 C5.76585734 11.88170958 5.12946305 14.34236751 2.6875 17.4375 C-0.48562078 20.46303377 -2.05569217 20.91256409 -6.375 21.3125 C-10.63776957 20.94501986 -12.05291871 20.03128361 -15 17 C-17.28582634 13.73453379 -17.40058025 10.92568648 -17 7 C-13.61809065 -0.65379485 -7.67573745 -2.47067137 0 0 Z " fill="#FFE2BC" transform="translate(178,381)"/>
	<path d="M0 0 C2.40188528 0.70544882 3.60836375 1.38556447 5.359375 3.15625 C7.48158655 7.11771156 7.79269935 9.18608322 7 13.53125 C5.6439253 17.29504916 3.65322774 18.72926027 0.234375 20.65625 C-2.85684054 21.38679117 -4.47986482 21.17779924 -7.765625 20.65625 C-10.85782951 18.61671086 -12.33284598 17.0640547 -13.4296875 13.49609375 C-14.12733244 9.39913962 -14.18395572 7.358448 -12.015625 3.71875 C-7.75102395 -0.19046763 -5.54112746 -0.79676343 0 0 Z " fill="#FFE6BB" transform="translate(379.765625,193.34375)"/>
</svg>